HIERARCHY
ROOT Hips
{
	OFFSET 0.000000 0.000000 0.000000
	CHANNELS 6 Xposition Yposition Zposition Zrotation Yrotation Xrotation 
	JOINT LHipJoint
	{
		OFFSET 0.000000 0.000000 0.000000
		CHANNELS 3 Zrotation Yrotation Xrotation
		JOINT LeftUpLeg
		{
			OFFSET 1.363060 -1.794630 0.839290
			CHANNELS 3 Zrotation Yrotation Xrotation
			JOINT LeftLeg
			{
				OFFSET 2.448110 -6.726130 0.000000
				CHANNELS 3 Zrotation Yrotation Xrotation
				JOINT LeftFoot
				{
					OFFSET 2.562200 -7.039590 0.000000
					CHANNELS 3 Zrotation Yrotation Xrotation
					JOINT LeftToeBase
					{
						OFFSET 0.157640 -0.433110 2.322550
						CHANNELS 3 Zrotation Yrotation Xrotation
						End Site
						{
							OFFSET 0.000000 0.000000 0.000000
						}
					}
				}
			}
		}
	}
	JOINT RHipJoint
	{
		OFFSET 0.000000 0.000000 0.000000
		CHANNELS 3 Zrotation Yrotation Xrotation
		JOINT RightUpLeg
		{
			OFFSET -1.305520 -1.794630 0.839290
			CHANNELS 3 Zrotation Yrotation Xrotation
			JOINT RightLeg
			{
				OFFSET -2.542530 -6.985550 0.000000
				CHANNELS 3 Zrotation Yrotation Xrotation
				JOINT RightFoot
				{
					OFFSET -2.568260 -7.056230 0.000000
					CHANNELS 3 Zrotation Yrotation Xrotation
					JOINT RightToeBase
					{
						OFFSET -0.164730 -0.452590 2.363150
						CHANNELS 3 Zrotation Yrotation Xrotation
						End Site
						{
							OFFSET 0.000000 0.000000 0.000000
						}
					}
				}
			}
		}
	}
	JOINT LowerBack
	{
		OFFSET 0.000000 0.000000 0.000000
		CHANNELS 3 Zrotation Yrotation Xrotation
		JOINT Spine
		{
			OFFSET 0.028270 2.035590 -0.193380
			CHANNELS 3 Zrotation Yrotation Xrotation
			JOINT Spine1
			{
				OFFSET 0.056720 2.048850 -0.042750
				CHANNELS 3 Zrotation Yrotation Xrotation
				JOINT Neck
				{
					OFFSET 0.000000 0.000000 0.000000
					CHANNELS 3 Zrotation Yrotation Xrotation
					JOINT Neck1
					{
						OFFSET -0.054170 1.746240 0.172020
						CHANNELS 3 Zrotation Yrotation Xrotation
						JOINT Head
						{
							OFFSET 0.104070 1.761360 -0.123970
							CHANNELS 3 Zrotation Yrotation Xrotation
							End Site
							{
								OFFSET 0.000000 0.000000 0.000000
							}
						}
					}
				}
				JOINT LeftShoulder
				{
					OFFSET 0.000000 0.000000 0.000000
					CHANNELS 3 Zrotation Yrotation Xrotation
					JOINT LeftArm
					{
						OFFSET 3.362410 1.200890 -0.311210
						CHANNELS 3 Zrotation Yrotation Xrotation
						JOINT LeftForeArm
						{
							OFFSET 4.983000 -0.000000 -0.000000
							CHANNELS 3 Zrotation Yrotation Xrotation
							JOINT LeftHand
							{
								OFFSET 3.483560 -0.000000 -0.000000
								CHANNELS 3 Zrotation Yrotation Xrotation
								JOINT LeftFingerBase
								{
									OFFSET 0.000000 0.000000 0.000000
									CHANNELS 3 Zrotation Yrotation Xrotation
									JOINT LeftHandIndex1
									{
										OFFSET 0.715260 -0.000000 -0.000000
										CHANNELS 3 Zrotation Yrotation Xrotation
										End Site
										{
											OFFSET 0.000000 0.000000 0.000000
										}
									}
								}
								JOINT LThumb
								{
									OFFSET 0.000000 0.000000 0.000000
									CHANNELS 3 Zrotation Yrotation Xrotation
									End Site
									{
										OFFSET 0.000000 0.000000 0.000000
									}
								}
							}
						}
					}
				}
				JOINT RightShoulder
				{
					OFFSET 0.000000 0.000000 0.000000
					CHANNELS 3 Zrotation Yrotation Xrotation
					JOINT RightArm
					{
						OFFSET -3.136600 1.374050 -0.404650
						CHANNELS 3 Zrotation Yrotation Xrotation
						JOINT RightForeArm
						{
							OFFSET -5.241900 -0.000000 -0.000000
							CHANNELS 3 Zrotation Yrotation Xrotation
							JOINT RightHand
							{
								OFFSET -3.444170 -0.000000 -0.000000
								CHANNELS 3 Zrotation Yrotation Xrotation
								JOINT RightFingerBase
								{
									OFFSET 0.000000 0.000000 0.000000
									CHANNELS 3 Zrotation Yrotation Xrotation
									JOINT RightHandIndex1
									{
										OFFSET -0.622530 -0.000000 -0.000000
										CHANNELS 3 Zrotation Yrotation Xrotation
										End Site
										{
											OFFSET 0.000000 0.000000 0.000000
										}
									}
								}
								JOINT RThumb
								{
									OFFSET 0.000000 0.000000 0.000000
									CHANNELS 3 Zrotation Yrotation Xrotation
									End Site
									{
										OFFSET 0.000000 0.000000 0.000000
									}
								}
							}
						}
					}
				}
			}
		}
	}
}
MOTION
Frames: 5
Frame Time: 0.008333
-11.564307 17.013188 -2.588422 83.369848 88.281814 94.932530 -8.817726 1.369302 4.174609 -13.345458 -3.583145 -33.428553 -2.676914 -0.116212 15.839759 0.318735 2.149509 1.072181 0.683800 -0.000000 -20.699200 11.010435 -4.256061 -0.188018 6.042125 -9.929060 -1.995117 1.128386 -2.256910 30.244577 0.439714 6.445113 5.938075 1.274200 -0.000000 -73.729900 -3.011986 1.022132 -5.372585 -1.765740 1.015529 -3.843498 -7.259224 0.967435 1.222285 12.238452 -7.444216 -8.452294 -3.745291 -0.289083 -0.219499 0.000000 0.000000 0.000000 -3.796365 20.593516 1.334189 -69.833712 16.150341 -9.895506 -3.024723 -34.436079 0.011229 7.914764 -0.447078 -0.026013 -0.099279 -0.068932 -0.000000 0.000000 0.000000 0.000000 0.000000 0.000000 0.000000 19.323526 0.102875 -0.841520 71.196778 17.773003 13.822325 1.841867 54.757311 0.009196 0.101652 7.851803 0.005797 0.041754 -0.300097 -0.000000 0.000000 0.000000 0.000000 0.000000 0.000000 0.000000 
-11.382533 17.028612 -2.583680 84.463888 87.836716 95.792852 -8.727024 1.534095 4.141762 -14.005281 -3.342346 -32.555194 -2.761358 -0.106526 15.989360 0.301418 1.966596 0.648335 0.624700 0.000000 -20.546700 11.299837 -4.223193 -0.312560 5.045153 -11.013707 -3.174487 0.802709 -2.447515 33.008683 0.340993 6.552509 8.216609 1.591200 0.000000 -75.044800 -3.416302 0.890456 -5.284465 -1.844516 0.923233 -3.825909 -7.263726 0.874153 1.227603 12.307972 -7.614471 -8.455593 -3.765769 -0.290484 -0.221825 0.000000 0.000000 0.000000 -3.672244 20.344411 1.300459 -69.794848 15.688061 -9.690655 -3.027893 -34.456985 0.010983 7.971690 -0.466190 -0.027707 -0.099154 -0.066342 -0.000000 0.000000 0.000000 0.000000 0.000000 0.000000 0.000000 19.558571 -0.183225 -0.840961 71.567870 17.253073 13.463706 1.877375 53.943428 0.008960 0.011626 7.808285 -0.000718 0.043906 -0.293820 -0.000000 0.000000 0.000000 0.000000 0.000000 0.000000 0.000000 
-11.204249 17.043165 -2.579646 84.680278 87.407333 95.816730 -8.648872 1.680406 4.110454 -14.619268 -3.098967 -31.688496 -2.846035 -0.107654 16.087980 0.285635 1.770912 0.136955 0.561800 0.000000 -20.386600 11.555754 -4.158730 -0.419191 4.142320 -11.948561 -4.467454 0.490070 -2.613730 35.845367 0.199457 6.388308 10.329298 1.837700 -0.000000 -75.368600 -3.785615 0.755980 -5.207560 -1.912824 0.824412 -3.808718 -7.258788 0.773897 1.235921 12.353025 -7.790206 -8.468160 -3.781970 -0.291435 -0.226468 0.000000 0.000000 0.000000 -3.570503 20.088780 1.268506 -69.777992 15.170805 -9.442067 -3.026016 -34.523342 0.010684 8.044779 -0.482855 -0.029399 -0.098965 -0.063303 -0.000000 0.000000 0.000000 0.000000 0.000000 0.000000 0.000000 19.749497 -0.481603 -0.838094 71.931569 16.753256 13.090556 1.911873 53.105730 0.008677 -0.090004 7.749555 -0.008035 0.046150 -0.287257 -0.000000 0.000000 0.000000 0.000000 0.000000 0.000000 0.000000 
-11.029452 17.056706 -2.576209 84.154072 87.001870 95.141909 -8.582743 1.809105 4.080326 -15.179648 -2.850523 -30.832724 -2.928307 -0.119530 16.126664 0.273250 1.581896 -0.426729 0.500300 0.000000 -20.216400 11.776113 -4.064286 -0.504169 3.357246 -12.700084 -5.860978 0.198311 -2.758756 38.723123 0.022484 5.884964 12.169678 1.948700 -0.000000 -74.823300 -4.113349 0.621408 -5.145459 -1.969809 0.721208 -3.792552 -7.246404 0.668844 1.247624 12.378358 -7.971214 -8.491405 -3.794608 -0.291988 -0.233792 0.000000 0.000000 0.000000 -3.490507 19.833014 1.237844 -69.777957 14.600256 -9.147427 -3.018734 -34.643008 0.010335 8.136703 -0.497092 -0.030990 -0.098742 -0.059837 -0.000000 0.000000 0.000000 0.000000 0.000000 0.000000 0.000000 19.904408 -0.788974 -0.831734 72.279084 16.275072 12.710950 1.945510 52.255446 0.008369 -0.200160 7.677413 -0.015754 0.048464 -0.280505 0.000000 0.000000 0.000000 0.000000 0.000000 0.000000 0.000000 
-10.857997 17.069252 -2.573456 82.970784 86.629209 93.854855 -8.530794 1.920597 4.049705 -15.678199 -2.584651 -29.996398 -3.005870 -0.141565 16.101970 0.264716 1.408549 -1.012234 0.442900 0.000000 -20.041200 11.958282 -3.945367 -0.564133 2.712445 -13.246761 -7.342927 -0.067713 -2.887750 41.607297 -0.181608 4.995491 13.644486 1.869100 0.000000 -73.571100 -4.389740 0.489006 -5.100910 -2.013916 0.615102 -3.777922 -7.228630 0.560535 1.263140 12.388428 -8.156214 -8.526166 -3.804517 -0.292211 -0.243999 0.000000 0.000000 0.000000 -3.434174 19.584840 1.207861 -69.788289 13.975858 -8.806578 -3.006102 -34.818376 0.009935 8.247726 -0.509727 -0.032579 -0.098518 -0.055970 -0.000000 0.000000 0.000000 0.000000 0.000000 0.000000 0.000000 20.031174 -1.101428 -0.821344 72.600976 15.816672 12.332524 1.978338 51.404873 0.008046 -0.315973 7.595074 -0.023773 0.050822 -0.273652 0.000000 0.000000 0.000000 0.000000 0.000000 0.000000 0.000000 
